<svg width="24" height="32" viewBox="0 0 24 32" fill="none" xmlns="http://www.w3.org/2000/svg">
<path d="M24 12.0311C24 17.5078 16.6875 27.258 13.4812 31.2809C12.7125 32.2397 11.2875 32.2397 10.5188 31.2809C7.25625 27.258 0 17.5078 0 12.0311C0 5.38644 5.3725 0 12 0C18.625 0 24 5.38644 24 12.0311Z" fill="url(#paint0_linear_202_5344)"/>
<path d="M11.0357 30.0174L11.034 30.0152C9.54613 28.1389 7.14994 24.9296 5.12849 21.5566C4.1177 19.87 3.20623 18.1518 2.54878 16.5453C1.88811 14.931 1.5 13.4675 1.5 12.2792C1.5 6.31404 6.21267 1.5 12 1.5C17.7851 1.5 22.5 6.31411 22.5 12.2792C22.5 13.4668 22.1091 14.9298 21.4444 16.5443C20.7829 18.1509 19.8667 19.8692 18.8525 21.556C16.8246 24.929 14.4284 28.1387 12.9639 30.0179C12.4593 30.6609 11.54 30.6607 11.0357 30.0174Z" stroke="white"/>
<rect x="6" y="15.8159" width="1.55752" height="3.18403" rx="0.5" fill="white"/>
<path d="M7.85498 16.7944H8.18566C8.4618 16.7944 8.68566 17.0183 8.68566 17.2944V17.7096C8.68566 17.9857 8.4618 18.2096 8.18566 18.2096H7.85498V16.7944Z" fill="white"/>
<path d="M16.4395 12.5325L17.4365 12.9141C17.6944 13.0129 17.8302 13.3044 17.7399 13.5654L17.4091 14.5214C17.3188 14.7823 17.0365 14.9139 16.7786 14.8151L15.7816 14.4335L16.4395 12.5325Z" fill="white"/>
<path d="M12.1011 13.8015L12.0899 13.8455C12.0217 14.1131 11.751 14.2693 11.4852 14.1944L10.8231 14.0078C10.5573 13.9329 10.3971 13.6553 10.4653 13.3877L10.4765 13.3437L12.1011 13.8015Z" fill="white"/>
<path fill-rule="evenodd" clip-rule="evenodd" d="M11.3936 14.501L10.7438 14.3179L10.0106 17.1481H8.86401V17.8557H10.2095L10.2095 17.8557L10.5459 17.8557L11.3936 14.501Z" fill="white"/>
<path d="M7.43115 8.74756L16.215 12.11L15.441 14.3467C15.3507 14.6076 15.0684 14.7392 14.8105 14.6404L8.36143 12.1717C7.32985 11.7769 6.78644 10.6105 7.14767 9.56671L7.43115 8.74756Z" fill="white"/>
<path d="M7.55836 8.32978C7.81239 7.59573 8.60694 7.22639 9.33193 7.50534L17.994 10.8382L16.5588 11.5991C16.436 11.6642 16.2907 11.6725 16.1588 11.622L7.55836 8.32978Z" fill="white"/>
<defs>
<linearGradient id="paint0_linear_202_5344" x1="12" y1="0" x2="12" y2="32" gradientUnits="userSpaceOnUse">
<stop stop-color="#76B1FF"/>
<stop offset="0.930208" stop-color="#0353BF"/>
</linearGradient>
</defs>
</svg>
