<?xml version="1.0" encoding="utf-8"?>
<!-- Generator: Adobe Illustrator 23.0.3, SVG Export Plug-In . SVG Version: 6.00 Build 0)  -->
<svg version="1.1" id="Layer_1" xmlns="http://www.w3.org/2000/svg" xmlns:xlink="http://www.w3.org/1999/xlink" x="0px" y="0px"
	 viewBox="0 0 24 24" style="enable-background:new 0 0 24 24;" xml:space="preserve">
<style type="text/css">
	.st0{fill:#e5d700;}
</style>
<path class="st0" d="M19.2,4.9c-0.3-0.3-0.6-0.5-1-0.7C17.8,4.1,17.5,4,17.1,4s-0.8,0.1-1.2,0.2c-0.4,0.1-0.7,0.4-1,0.7l-9.4,9.4
	C5.2,14.6,5,15,4.9,15.4l-0.9,4c0,0.1,0,0.2,0,0.2c0,0.1,0.1,0.2,0.1,0.2C4.2,19.9,4.3,20,4.4,20s0.2,0,0.2,0l3.9-0.9
	C9,19,9.4,18.8,9.8,18.4L19.2,9C19.7,8.5,20,7.8,20,7S19.7,5.5,19.2,4.9z M15.6,5.6C16,5.2,16.5,5,17,5s1,0.2,1.4,0.6S19,6.5,19,7
	s-0.2,1-0.6,1.4L17.7,9L15,6.2L15.6,5.6z M14.2,7L17,9.7l-8,8c-0.2,0.2-0.5,0.3-0.7,0.4l-3.2,0.7l0.7-3.2c0.1-0.3,0.2-0.5,0.4-0.7
	L14.2,7z"/>
</svg>
